<svg width="25" height="26" viewBox="0 0 25 26" fill="none" xmlns="http://www.w3.org/2000/svg">
<path d="M2 2.5C2 1.70312 2.65625 1 3.5 1C4.29688 1 5 1.70312 5 2.5C5 3.34375 4.29688 4 3.5 4C2.65625 4 2 3.34375 2 2.5ZM21.5 8.5C21.5 7.70312 22.1562 7 23 7C23.7969 7 24.5 7.70312 24.5 8.5C24.5 9.34375 23.7969 10 23 10C22.1562 10 21.5 9.34375 21.5 8.5ZM23 20.5C23.7969 20.5 24.5 21.2031 24.5 22C24.5 22.8438 23.7969 23.5 23 23.5C22.1562 23.5 21.5 22.8438 21.5 22C21.5 21.2031 22.1562 20.5 23 20.5ZM8.32812 8.17188C7.85938 7.75 7.85938 7.04688 8.32812 6.625L8.70312 6.20312C9.5 5.45312 9.96875 4.42188 10.1094 3.29688L10.25 2.03125C10.2969 1.42188 10.8594 0.953125 11.4688 1.04688C12.0781 1.09375 12.5469 1.65625 12.4531 2.26562L12.3125 3.53125C12.1719 5.17188 11.4219 6.67188 10.2969 7.79688L9.92188 8.17188C9.45312 8.64062 8.75 8.64062 8.32812 8.17188ZM17.3281 15.5781L17.7031 15.2031C18.8281 14.0781 20.3281 13.3281 21.9219 13.1875L23.2344 13.0469C23.8438 12.9531 24.4062 13.4219 24.4531 14.0312C24.5469 14.6406 24.0781 15.2031 23.4688 15.25L22.2031 15.3906C21.0781 15.5312 20.0469 16 19.2969 16.7969L18.9219 17.1719C18.4531 17.6406 17.75 17.6406 17.3281 17.1719C16.8594 16.75 16.8594 16.0469 17.3281 15.625V15.5781ZM24.2188 1.42188C24.5938 1.89062 24.5469 2.59375 24.0781 3.01562L23.6094 3.39062C22.9062 4 22.0156 4.28125 21.125 4.28125C20.3281 4.23438 19.6719 4.84375 19.625 5.64062L19.5781 7.04688C19.4375 9.01562 17.75 10.5625 15.7812 10.5156C15.4062 10.5156 15.0781 10.6094 14.7969 10.8438L14.3281 11.2656C13.8594 11.6406 13.1562 11.5938 12.7344 11.125C12.3594 10.6562 12.4062 9.95312 12.875 9.53125L13.3438 9.15625C14.0469 8.54688 14.9375 8.26562 15.8281 8.26562C16.625 8.3125 17.2812 7.70312 17.3281 6.90625L17.4219 5.5C17.5156 3.53125 19.2031 1.98438 21.1719 2.03125C21.5469 2.03125 21.875 1.9375 22.1562 1.70312L22.625 1.28125C23.0938 0.90625 23.7969 0.953125 24.2188 1.42188ZM7.53125 10.4688L15.0312 17.9688C15.4062 18.3438 15.5469 18.8594 15.4531 19.3281C15.3125 19.8438 14.9844 20.2656 14.5156 20.4062L12.6406 21.1094L4.39062 12.8594L5.09375 10.9844C5.23438 10.5156 5.65625 10.1875 6.17188 10.0469C6.64062 9.95312 7.15625 10.0938 7.53125 10.4688ZM2.75 17.2188L3.78125 14.4062L11.0938 21.7188L8.28125 22.75L2.75 17.2188ZM2.14062 18.7656L6.73438 23.3594L2.51562 24.9062C1.95312 25.1406 1.34375 25 0.921875 24.5781C0.5 24.1562 0.359375 23.5469 0.59375 22.9844L2.14062 18.7656Z" fill="#FFF4E6"/>
</svg>
